<?xml version="1.0" encoding="utf-8"?>
<!-- Generator: Adobe Illustrator 22.1.0, SVG Export Plug-In . SVG Version: 6.00 Build 0)  -->
<svg version="1.1" id="Layer_1" xmlns="http://www.w3.org/2000/svg" xmlns:xlink="http://www.w3.org/1999/xlink" x="0px" y="0px"
	 viewBox="0 0 91 91" enable-background="new 0 0 91 91" xml:space="preserve">
<g>
	<circle fill="#E9F0F3" cx="45.5" cy="45.5" r="45.5"/>
	<g>
		<path fill="#FFD26C" d="M46,46.8c-9.3,0-16.8-7.6-16.8-16.8S36.7,13.1,46,13.1S62.8,20.7,62.8,30C62.8,39.2,55.3,46.8,46,46.8z"/>
		<path fill="#16303F" d="M46,48.3c-10.1,0-18.4-8.2-18.4-18.4c0-10.1,8.2-18.4,18.4-18.4S64.4,19.8,64.4,30
			C64.4,40.1,56.1,48.3,46,48.3z M46,14.7c-8.4,0-15.3,6.9-15.3,15.3c0,8.4,6.9,15.3,15.3,15.3c8.4,0,15.3-6.9,15.3-15.3
			C61.3,21.5,54.4,14.7,46,14.7z"/>
		<path fill="#F2B649" d="M56.9,30c0,6-4.9,10.9-10.9,10.9S35.1,36,35.1,30S40,19.1,46,19.1S56.9,24,56.9,30z"/>
		<path fill="#16303F" d="M46,42.3c-6.8,0-12.4-5.6-12.4-12.4c0-6.8,5.6-12.4,12.4-12.4S58.4,23.1,58.4,30
			C58.4,36.8,52.8,42.3,46,42.3z M46,20.6c-5.1,0-9.3,4.2-9.3,9.3c0,5.1,4.2,9.3,9.3,9.3c5.1,0,9.3-4.2,9.3-9.3
			C55.3,24.8,51.1,20.6,46,20.6z"/>
		<path fill="#16303F" d="M45.8,35.3c-1.8-0.1-3.3-1-3.3-2c0-0.5,0.5-1.3,1-1.3c0.6,0,1.2,0.9,2.3,1.1v-2.5
			c-1.4-0.5-3.1-1.2-3.1-3.2c0-2,1.4-2.9,3.1-3.1v-0.4c0-0.2,0.2-0.4,0.6-0.4c0.3,0,0.6,0.2,0.6,0.4v0.4c1,0,2.8,0.3,2.8,1.3
			c0,0.4-0.3,1.3-1,1.3c-0.5,0-0.8-0.5-1.8-0.6v2.2c1.4,0.5,3,1.2,3,3.3c0,1.9-1.2,3.1-3,3.4v0.4c0,0.2-0.3,0.4-0.6,0.4
			c-0.3,0-0.6-0.2-0.6-0.4V35.3z M45.9,28.2v-1.8c-0.7,0.1-1,0.5-1,0.9C44.9,27.7,45.3,28,45.9,28.2z M46.8,31v2.1
			c0.5-0.1,0.9-0.4,0.9-1C47.7,31.6,47.3,31.3,46.8,31z"/>
		<path fill="#F3D8B8" d="M73.2,38.4l1-12.8c0-2.4,1.9-4.3,4.3-4.2c2.4,0,3.7,2.2,4.2,4.3c0,0,2.7,20.6-0.5,26.2
			C79,57.2,64.2,74,64.2,74l-8.4-4.9"/>
		<path fill="#F3D8B8" d="M67.3,58.5L75.2,45c1.3-2.2,0.6-5.1-1.7-6.4c-2.2-1.3-5.1-0.6-6.4,1.7l-5.9,10.1c-3,0-6,1.6-7.6,4.4
			c-0.1,0.1-0.1,0.2-0.1,0.3c-1.8,3.3-1,7.5,1.7,10.1l0.4,0.3L54,68.1l5.7,3.3"/>
		<path fill="#16303F" d="M64.7,64.4c-0.1,0-0.2,0-0.3,0c-0.1,0-0.2,0-0.3-0.1c-0.1,0-0.2-0.1-0.3-0.1c-0.1-0.1-0.2-0.1-0.2-0.2
			c-0.3-0.3-0.5-0.7-0.5-1.1c0-0.1,0-0.2,0-0.3c0-0.1,0-0.2,0.1-0.3s0.1-0.2,0.1-0.3c0.1-0.1,0.1-0.2,0.2-0.2
			c0.1-0.1,0.1-0.1,0.2-0.2c0.1-0.1,0.2-0.1,0.3-0.1c0.1,0,0.2-0.1,0.3-0.1c0.2,0,0.4,0,0.6,0c0.1,0,0.2,0,0.3,0.1
			c0.1,0,0.2,0.1,0.3,0.1c0.1,0.1,0.2,0.1,0.2,0.2c0.1,0.1,0.1,0.1,0.2,0.2c0.1,0.1,0.1,0.2,0.1,0.3c0,0.1,0.1,0.2,0.1,0.3
			c0,0.1,0,0.2,0,0.3c0,0.4-0.2,0.8-0.5,1.1c-0.1,0.1-0.1,0.1-0.2,0.2c-0.1,0.1-0.2,0.1-0.3,0.1c-0.1,0-0.2,0.1-0.3,0.1
			C64.9,64.4,64.8,64.4,64.7,64.4z"/>
		<path fill="#00528B" d="M48,74l4.1-7l14.4,8.4l-4.1,7L48,74z"/>
		<path fill="#F3D8B8" d="M18.8,38.3l-1-12.8c0-2.4-1.9-4.3-4.3-4.2c-2.4,0-3.7,2.2-4.2,4.3c0,0-2.7,20.6,0.5,26.2
			c3.2,5.5,18,22.3,18,22.3l8.4-4.9"/>
		<path fill="#F3D8B8" d="M24.7,58.5L16.8,45c-1.3-2.2-0.6-5.1,1.7-6.4s5.1-0.6,6.4,1.7l5.9,10.1c3,0,6,1.6,7.6,4.4
			c0.1,0.1,0.1,0.2,0.1,0.3c1.8,3.3,1,7.5-1.7,10.1l-0.4,0.3l1.5,2.5l-5.7,3.3"/>
		<path fill="#16303F" d="M27.3,64.4c-0.1,0-0.2,0-0.3,0c-0.1,0-0.2,0-0.3-0.1c-0.1,0-0.2-0.1-0.3-0.1c-0.1-0.1-0.2-0.1-0.2-0.2
			c-0.1-0.1-0.1-0.1-0.2-0.2c-0.1-0.1-0.1-0.2-0.1-0.3c0-0.1-0.1-0.2-0.1-0.3c0-0.1,0-0.2,0-0.3c0-0.4,0.2-0.8,0.5-1.1
			c0.1-0.1,0.1-0.1,0.2-0.2c0.1-0.1,0.2-0.1,0.3-0.1c0.1,0,0.2-0.1,0.3-0.1c0.2,0,0.4,0,0.6,0c0.1,0,0.2,0,0.3,0.1
			c0.1,0,0.2,0.1,0.3,0.1c0.1,0.1,0.2,0.1,0.2,0.2c0.3,0.3,0.5,0.7,0.5,1.1c0,0.1,0,0.2,0,0.3c0,0.1,0,0.2-0.1,0.3
			c0,0.1-0.1,0.2-0.1,0.3c-0.1,0.1-0.1,0.2-0.2,0.2c-0.1,0.1-0.1,0.1-0.2,0.2c-0.1,0.1-0.2,0.1-0.3,0.1c-0.1,0-0.2,0.1-0.3,0.1
			C27.5,64.4,27.4,64.4,27.3,64.4z"/>
		<path fill="#00528B" d="M25.5,75.4l14.4-8.4l4.1,7l-14.4,8.4L25.5,75.4z"/>
		<path fill="#16303F" d="M85.2,36.5c-0.3-5.8-0.9-11.1-1-11.1c0-0.1,0-0.1,0-0.2c-0.9-3.4-3-5.4-5.7-5.4c0,0,0,0,0,0
			c-3.1,0-5.7,2.5-5.8,5.7l-0.9,11c-0.7-0.1-1.5,0-2.2,0.2c-1.6,0.4-2.9,1.4-3.8,2.9l-5.5,9.4c-3.3,0.3-6.3,2.2-8,5.1
			c-0.1,0.1-0.1,0.2-0.2,0.3c-2,3.7-1.4,8.3,1.5,11.4L53.5,66l-0.6-0.3c-0.7-0.4-1.7-0.2-2.1,0.5l-4.1,7c-0.2,0.4-0.3,0.8-0.2,1.2
			c0.1,0.4,0.4,0.7,0.7,0.9l14.4,8.4c0.2,0.1,0.5,0.2,0.8,0.2c0.5,0,1-0.3,1.3-0.8l4.1-7c0.2-0.4,0.3-0.8,0.2-1.2
			c-0.1-0.4-0.4-0.7-0.7-0.9l-0.7-0.4c3.6-4.2,14.2-16.4,16.9-21.1C85.1,49.9,85.6,44.7,85.2,36.5z M61.8,80.3l-11.7-6.9l2.6-4.4
			l11.7,6.9L61.8,80.3z M80.9,50.9C78.2,55.5,67,68.4,63.9,72l-7.4-4.3l0,0l-0.4-0.2l0.7-1.2c0.4-0.6,0.2-1.4-0.3-1.9l-0.4-0.3
			c-2.3-2.2-2.9-5.5-1.4-8.2c0-0.1,0.1-0.1,0.1-0.2c1.3-2.2,3.7-3.6,6.3-3.6c0.5,0,1-0.3,1.3-0.8l5.9-10.1c0.4-0.7,1.1-1.2,1.9-1.4
			c0.8-0.2,1.7-0.1,2.4,0.3c0.7,0.4,1.2,1.1,1.4,1.9c0.2,0.8,0.1,1.7-0.3,2.4L66,57.7c-0.4,0.7-0.2,1.7,0.5,2.1
			c0.7,0.4,1.7,0.2,2.1-0.5l7.9-13.4c0.8-1.4,1.1-3.1,0.6-4.7c-0.4-1.4-1.2-2.6-2.3-3.4l0.9-12c0,0,0-0.1,0-0.1
			c0-1.5,1.2-2.7,2.7-2.7c1.7,0,2.5,2.1,2.7,3C82,31.5,83.3,46.8,80.9,50.9z"/>
		<path fill="#16303F" d="M41.2,66.2c-0.4-0.7-1.4-1-2.1-0.5L38.5,66l-0.1-0.2c2.9-3.1,3.5-7.7,1.5-11.4c-0.1-0.1-0.1-0.2-0.2-0.3
			c-1.7-2.9-4.7-4.8-8-5.1l-5.5-9.4c-0.8-1.4-2.2-2.4-3.8-2.9c-0.7-0.2-1.5-0.2-2.2-0.2l-0.9-11c-0.1-3.2-2.6-5.7-5.8-5.7
			c0,0,0,0,0,0c-2.7,0-4.8,2.1-5.7,5.4c0,0.1,0,0.1,0,0.2c0,0.1-0.7,5.3-1,11.1c-0.4,8.2,0.2,13.4,1.7,16
			c2.8,4.7,13.3,16.9,16.9,21.1L24.7,74c-0.4,0.2-0.6,0.5-0.7,0.9c-0.1,0.4,0,0.8,0.2,1.2l4.1,7c0.3,0.5,0.8,0.8,1.3,0.8
			c0.3,0,0.5-0.1,0.8-0.2l14.4-8.4c0.4-0.2,0.6-0.5,0.7-0.9c0.1-0.4,0-0.8-0.2-1.2L41.2,66.2z M35.5,67.7L28.1,72
			c-3.2-3.6-14.3-16.5-17-21.1c-2.4-4.1-1.1-19.4-0.4-25.1c0.3-1,1-3,2.7-3h0c1.5,0,2.7,1.2,2.7,2.7c0,0,0,0.1,0,0.1l0.9,12
			c-1.2,0.8-2,2-2.3,3.4c-0.4,1.6-0.2,3.3,0.6,4.7l7.9,13.4c0.4,0.7,1.4,1,2.1,0.5c0.7-0.4,1-1.4,0.5-2.1l-7.9-13.4
			c-0.4-0.7-0.5-1.6-0.3-2.4c0.2-0.8,0.7-1.5,1.4-1.9c0.7-0.4,1.6-0.5,2.4-0.3c0.8,0.2,1.5,0.7,1.9,1.4l5.9,10.1
			c0.3,0.5,0.8,0.8,1.3,0.8c2.6,0,5,1.4,6.3,3.6c0,0.1,0.1,0.1,0.1,0.2c1.5,2.7,0.9,6.1-1.4,8.2l-0.4,0.3c-0.5,0.5-0.6,1.3-0.3,1.9
			l0.7,1.2L35.5,67.7L35.5,67.7z M30.2,80.3l-2.6-4.4L39.3,69l2.6,4.4L30.2,80.3z"/>
	</g>
</g>
</svg>
