<?xml version="1.0" encoding="utf-8"?>
<!-- Generator: Adobe Illustrator 22.1.0, SVG Export Plug-In . SVG Version: 6.00 Build 0)  -->
<svg version="1.1" id="Layer_1" xmlns="http://www.w3.org/2000/svg" xmlns:xlink="http://www.w3.org/1999/xlink" x="0px" y="0px"
	 viewBox="0 0 91 91" enable-background="new 0 0 91 91" xml:space="preserve">
<path fill="#E9F0F3" d="M91,45.5C91,70.6,70.6,91,45.5,91S0,70.6,0,45.5S20.4,0,45.5,0S91,20.4,91,45.5"/>
<g>
	<path fill="#6AC0EC" d="M77,73.1V38.5c0-3.1-2.3-5.6-5-5.6H25.5c-2.8,0-5,2.5-5,5.6v34.6H77z"/>
	<path fill="#6AC0EC" d="M68.7,26.4v-7.9c0-3.1,2.5-5.6,5.6-5.6h0.1c3.1,0,5.6,2.5,5.6,5.6v7.9H68.7z"/>
	<path fill="#FFFFFF" d="M68.8,73.1L68.7,19c0-3.3,2.7-6,6-6l0.1-0.1H26.4c-3.1,0-5.6,2.5-5.6,5.6v54.6"/>
	<g>
		<path fill="#4EB648" d="M31.4,34h3.6v6.7h-3.6V34z"/>
		<path fill="#4EB648" d="M31.4,47.5h3.6v6.7h-3.6V47.5z"/>
		<path fill="#4EB648" d="M31.4,60.9h3.6v6.7h-3.6V60.9z"/>
	</g>
	<path fill="#1483C6" d="M80.1,76.1v-3.1H28.3v3.1c0,3.3,2.6,5.9,5.9,5.9h39.9C77.4,82,80.1,79.4,80.1,76.1z"/>
	<path fill="#16303F" d="M77,49.4c-0.4,0-0.7,0.2-1,0.4c-0.3,0.3-0.4,0.6-0.4,1c0,0.4,0.2,0.7,0.4,1c0.3,0.3,0.6,0.4,1,0.4
		s0.7-0.2,1-0.4c0.3-0.3,0.4-0.6,0.4-1c0-0.4-0.2-0.7-0.4-1C77.7,49.6,77.4,49.4,77,49.4z"/>
	<path fill="#16303F" d="M74.4,25c-0.8,0-1.4,0.6-1.4,1.4s0.6,1.4,1.4,1.4h5.7c0.8,0,1.4-0.6,1.4-1.4v-7.9c0-3.7-2.8-6.7-6.4-7
		c-0.1,0-0.2,0-0.3,0H26.4c-3.9,0-7,3.2-7,7v12.9c-3.7,0.1-6.7,3.2-6.7,7v33.2h-1.7c-0.8,0-1.4,0.6-1.4,1.4v3.1c0,4,3.3,7.3,7.3,7.3
		h57.3c4,0,7.3-3.3,7.3-7.3v-3.1c0-0.8-0.6-1.4-1.4-1.4h-1.7V57.1c0-0.8-0.6-1.4-1.4-1.4s-1.4,0.6-1.4,1.4v14.6h-5.5V34.3h1.3
		c2.3,0,4.2,1.9,4.2,4.2v6.2c0,0.8,0.6,1.4,1.4,1.4s1.4-0.6,1.4-1.4v-6.2c0-3.9-3.2-7-7-7h-1.3V18.5c0-2.3,1.9-4.2,4.2-4.2h0.1
		c2.3,0,4.2,1.9,4.2,4.2V25H74.4z M15.4,38.5c0-2.2,1.7-4.1,3.9-4.2v37.4h-3.9V38.5z M78.7,76.1c0,2.5-2,4.5-4.5,4.5H16.8
		c-2.5,0-4.5-2-4.5-4.5v-1.7h66.3V76.1z M67.3,18.5v53.2H22.2V18.5c0-2.3,1.9-4.2,4.2-4.2h42.3C67.8,15.5,67.3,16.9,67.3,18.5z"/>
	<path fill="#16303F" d="M28.3,42.1h6.7c0.8,0,1.4-0.6,1.4-1.4V34c0-0.8-0.6-1.4-1.4-1.4h-6.7c-0.8,0-1.4,0.6-1.4,1.4v6.7
		C26.9,41.5,27.6,42.1,28.3,42.1z M29.8,35.4h3.9v3.9h-3.9V35.4z"/>
	<path fill="#16303F" d="M45.4,37.3c0,0.8,0.6,1.4,1.4,1.4h14.3c0.8,0,1.4-0.6,1.4-1.4s-0.6-1.4-1.4-1.4H46.8
		C46,35.9,45.4,36.6,45.4,37.3z"/>
	<path fill="#16303F" d="M40.8,38.7c0.4,0,0.7-0.2,1-0.4s0.4-0.6,0.4-1c0-0.4-0.2-0.7-0.4-1s-0.6-0.4-1-0.4c-0.4,0-0.7,0.2-1,0.4
		c-0.3,0.3-0.4,0.6-0.4,1c0,0.4,0.1,0.7,0.4,1C40,38.6,40.4,38.7,40.8,38.7z"/>
	<path fill="#16303F" d="M28.3,55.6h6.7c0.8,0,1.4-0.6,1.4-1.4v-6.7c0-0.8-0.6-1.4-1.4-1.4h-6.7c-0.8,0-1.4,0.6-1.4,1.4v6.7
		C26.9,55,27.6,55.6,28.3,55.6z M29.8,48.9h3.9v3.9h-3.9V48.9z"/>
	<path fill="#16303F" d="M61.1,49.4H40.8c-0.8,0-1.4,0.6-1.4,1.4c0,0.8,0.6,1.4,1.4,1.4h20.3c0.8,0,1.4-0.6,1.4-1.4
		C62.5,50.1,61.9,49.4,61.1,49.4z"/>
	<path fill="#16303F" d="M28.3,69.1h6.7c0.8,0,1.4-0.6,1.4-1.4v-6.7c0-0.8-0.6-1.4-1.4-1.4h-6.7c-0.8,0-1.4,0.6-1.4,1.4v6.7
		C26.9,68.5,27.6,69.1,28.3,69.1z M29.8,62.3h3.9v3.9h-3.9V62.3z"/>
	<path fill="#16303F" d="M61.1,62.9H40.8c-0.8,0-1.4,0.6-1.4,1.4s0.6,1.4,1.4,1.4h20.3c0.8,0,1.4-0.6,1.4-1.4S61.9,62.9,61.1,62.9z"
		/>
	<path fill="#16303F" d="M31.3,19.9h1v7.6c0,0.8,0.6,1.4,1.4,1.4c0.8,0,1.4-0.6,1.4-1.4v-7.6h1c0.8,0,1.4-0.6,1.4-1.4
		s-0.6-1.4-1.4-1.4h-4.9c-0.8,0-1.4,0.6-1.4,1.4S30.5,19.9,31.3,19.9z"/>
	<path fill="#16303F" d="M39.1,28.8c0.7,0.3,1.5,0,1.8-0.8l0.2-0.5h4.4l0.2,0.5c0.2,0.5,0.7,0.9,1.3,0.9c0.2,0,0.4,0,0.5-0.1
		c0.7-0.3,1.1-1.1,0.8-1.8L44.6,18c-0.2-0.5-0.7-0.9-1.3-0.9S42.2,17.5,42,18L38.3,27C38,27.7,38.3,28.5,39.1,28.8z M43.3,22.2
		l1,2.5h-2.1L43.3,22.2z"/>
	<path fill="#16303F" d="M51.8,28.7c0.2,0.2,0.5,0.2,0.8,0.2c0.5,0,0.9-0.2,1.2-0.6l1.7-2.7l1.7,2.7c0.3,0.4,0.7,0.6,1.2,0.6
		c0.3,0,0.5-0.1,0.8-0.2c0.7-0.4,0.8-1.3,0.4-1.9L57.2,23l2.4-3.7c0.4-0.7,0.2-1.5-0.4-1.9c-0.7-0.4-1.5-0.2-1.9,0.4l-1.7,2.7
		l-1.7-2.7c-0.4-0.7-1.3-0.8-1.9-0.4c-0.7,0.4-0.8,1.3-0.4,1.9l2.4,3.7l-2.4,3.7C51,27.4,51.2,28.3,51.8,28.7z"/>
</g>
</svg>
