<?xml version="1.0" encoding="utf-8"?>
<!-- Generator: Adobe Illustrator 22.1.0, SVG Export Plug-In . SVG Version: 6.00 Build 0)  -->
<svg version="1.1" id="Layer_1" xmlns="http://www.w3.org/2000/svg" xmlns:xlink="http://www.w3.org/1999/xlink" x="0px" y="0px"
	 viewBox="0 0 91 91" enable-background="new 0 0 91 91" xml:space="preserve">
<g>
	<circle fill="#E9F0F3" cx="45.5" cy="45.5" r="45.5"/>
	<g>
		<path fill="#79D1F6" d="M58.7,55l19.1,19.1c1.6,1.6,1.6,4.2,0,5.8l0,0c-1.6,1.6-4.2,1.6-5.8,0L52.9,60.9L58.7,55z"/>
		
			<rect x="54.6" y="56.7" transform="matrix(0.7071 -0.7071 0.7071 0.7071 -25.8779 59.4223)" fill="#FFFFFF" width="8.3" height="8.5"/>
		<path fill="#79D1F6" d="M64.2,40c0-14.5-11.8-26.3-26.3-26.3S11.6,25.5,11.6,40s11.8,26.3,26.3,26.3C52.4,66.3,64.2,54.5,64.2,40z
			"/>
		<circle fill="#FFFFFF" cx="37.9" cy="40" r="19.7"/>
		<path fill="#4EB648" d="M37.9,59.7c10.9,0,19.7-8.8,19.7-19.7c0-3.7-1-7.1-2.8-10.1L37.8,47l-7.5-7.5l-9.8,9.8
			C23.8,55.5,30.4,59.7,37.9,59.7z"/>
		<path fill="#16303F" d="M78.8,73.1L61,55.3c7.1-10.7,6-25.4-3.5-34.9c-10.8-10.8-28.4-10.8-39.1,0c-4.5,4.5-7.3,10.4-8,16.8
			c-0.6,6.2,0.9,12.5,4.2,17.8c0.4,0.6,1.3,0.8,1.9,0.4c0.6-0.4,0.8-1.3,0.4-1.9c-6.3-9.8-4.9-22.9,3.4-31.1
			c9.7-9.7,25.5-9.7,35.3,0s9.7,25.5,0,35.3c-8.2,8.2-20.9,9.7-30.8,3.6c-0.6-0.4-1.5-0.2-1.9,0.4c-0.4,0.6-0.2,1.5,0.4,1.9
			c4.4,2.7,9.5,4.2,14.6,4.2c1,0,2-0.1,3-0.2c4.4-0.5,8.6-2,12.3-4.4L71,80.9c1.1,1.1,2.5,1.6,3.9,1.6c1.4,0,2.8-0.5,3.9-1.6
			C80.9,78.7,80.9,75.3,78.8,73.1z M57.5,59.6c0.7-0.7,1.3-1.3,1.9-2l3.5,3.5l-3.9,3.9l-3.5-3.5C56.1,60.9,56.8,60.2,57.5,59.6z
			 M76.8,79C75.7,80,74,80,72.9,79L60.8,66.9l3.9-3.9l12.1,12.1C77.9,76.1,77.9,77.9,76.8,79z"/>
		<path d="M20.2,57.6c-0.5-0.5-1.4-0.5-1.9,0c-0.5,0.5-0.5,1.4,0,1.9l0,0c0.3,0.3,0.6,0.4,1,0.4c0.4,0,0.7-0.1,1-0.4
			C20.8,59,20.8,58.2,20.2,57.6L20.2,57.6z"/>
		<path d="M37.9,61.1C49.5,61.1,59,51.6,59,40s-9.5-21.1-21.1-21.1S16.8,28.4,16.8,40C16.8,51.6,26.2,61.1,37.9,61.1z M37.9,21.6
			c10.1,0,18.4,8.2,18.4,18.4c0,10.1-8.2,18.4-18.4,18.4c-6.6,0-12.4-3.5-15.7-8.8l8.1-8.1l6.5,6.5c0.3,0.3,0.6,0.4,1,0.4
			s0.7-0.1,1-0.4L49,37.7v0.4c0,0.8,0.6,1.4,1.4,1.4c0.8,0,1.4-0.6,1.4-1.4v-3.7c0-0.8-0.6-1.4-1.4-1.4h-3.7c-0.8,0-1.4,0.6-1.4,1.4
			c0,0.8,0.6,1.4,1.4,1.4H47l-9.2,9.2l-6.5-6.5c-0.3-0.3-0.6-0.4-1-0.4c-0.4,0-0.7,0.1-1,0.4L20.9,47c-0.9-2.2-1.4-4.5-1.4-7
			C19.5,29.9,27.7,21.6,37.9,21.6z"/>
	</g>
</g>
</svg>
